<svg width="201" height="72" viewBox="0 0 201 72" fill="none" xmlns="http://www.w3.org/2000/svg">
    <g filter="url(#filter0_f)">
        <path d="M51.2302 60.5986L103.505 60.745V67.8816H38V60.745L90.0484 29.6199H38V22.3857H103.389V29.6199L51.2302 60.5986Z" fill="black" fill-opacity="0.2"/>
    </g>
    <path fill-rule="evenodd" clip-rule="evenodd" d="M163.867 35.2094H172.24V58.9958C172.24 62.384 171.216 65.3042 168.951 67.4574C166.742 69.5717 163.866 70.53 160.563 70.53C157.212 70.53 154.295 69.6551 152.111 67.6225C149.898 65.5627 148.906 62.7421 148.906 59.4766V57.2465H157.259V59.4766C157.259 60.8029 157.603 61.5416 158.033 61.9939C158.448 62.418 159.174 62.7871 160.563 62.7871C161.693 62.7871 162.413 62.4471 162.944 61.8936L162.949 61.8882L162.955 61.8828C163.464 61.3588 163.855 60.5165 163.867 59.0497V35.2094ZM199.234 40.3874C200.35 42.1657 200.914 44.1334 200.914 46.2419V48.4721H192.54V46.2419C192.54 44.9171 192.149 44.1259 191.544 43.5775L191.538 43.5726L191.533 43.5677C190.907 42.9929 189.874 42.5551 188.124 42.5551C186.475 42.5551 185.493 42.9276 184.909 43.3942L184.906 43.3965C184.412 43.7895 184.119 44.3144 184.119 45.2592C184.119 45.7637 184.285 46.2056 184.854 46.687C185.546 47.2448 186.955 47.9243 189.358 48.6112C191.946 49.3472 194.106 50.1988 195.746 51.2082C197.39 52.1978 198.728 53.4322 199.629 54.9578C200.554 56.5001 200.976 58.2572 200.976 60.1457C200.976 63.2912 199.722 65.9255 197.281 67.846L197.277 67.8491L197.273 67.8522C194.884 69.7139 191.829 70.53 188.33 70.53C185.983 70.53 183.757 70.0758 181.677 69.1505L181.67 69.1477L181.664 69.1447C179.577 68.2002 177.863 66.8642 176.625 65.0957L176.621 65.0896L176.616 65.0835C175.385 63.299 174.777 61.2666 174.777 59.0585V56.8283H183.15V59.0585C183.15 60.2645 183.546 61.0557 184.308 61.6737C185.163 62.3421 186.432 62.7871 188.33 62.7871C190.161 62.7871 191.213 62.4019 191.795 61.95C192.334 61.5313 192.602 61.0243 192.602 60.1875C192.602 59.2853 192.328 58.8298 191.91 58.5019L191.903 58.4962L191.896 58.4905C191.224 57.9543 189.714 57.2402 187.04 56.4551C183.516 55.4271 180.667 54.0953 178.75 52.3226L178.742 52.3157L178.735 52.3086C176.751 50.4397 175.724 48.0646 175.724 45.3219C175.724 42.2338 176.978 39.629 179.353 37.6585M199.234 40.3874C198.119 38.5871 196.547 37.2067 194.599 36.2343C192.647 35.2531 190.471 34.7913 188.124 34.7913C184.716 34.7913 181.727 35.6868 179.353 37.6585" fill="#2CAEF6"/>
    <path d="M134.576 45.0076L106.048 29.2992V22.1626L141.219 41.4304V48.7863L106.048 67.8814V60.7448L134.576 45.0076Z" fill="black"/>
    <path d="M7.6183 45.0077L36.1466 29.2823V22.3857L0.975952 41.4305V48.7864L36.1466 67.8816V60.745L7.6183 45.0077Z" fill="black"/>
    <path fill-rule="evenodd" clip-rule="evenodd" d="M105.902 38.8954V50.4862H36V39.8452L82.1882 12.2246H36V0.530029H105.785V11.273L59.4963 38.7655L105.902 38.8954Z" fill="#2CAEF6"/>
    <defs>
        <filter id="filter0_f" x="34" y="18.3857" width="73.5053" height="53.4958" filterUnits="userSpaceOnUse" color-interpolation-filters="sRGB">
        <feFlood flood-opacity="0" result="BackgroundImageFix"/>
        <feBlend mode="normal" in="SourceGraphic" in2="BackgroundImageFix" result="shape"/>
        <feGaussianBlur stdDeviation="2" result="effect1_foregroundBlur"/>
    </filter>
    </defs>
</svg>
